<?xml version="1.0" standalone="no"?>
<!DOCTYPE svg PUBLIC "-//W3C//DTD SVG 20010904//EN"
 "http://www.w3.org/TR/2001/REC-SVG-20010904/DTD/svg10.dtd">
<svg version="1.0" xmlns="http://www.w3.org/2000/svg"
 width="300.000000pt" height="300.000000pt" viewBox="0 0 300.000000 300.000000"
 preserveAspectRatio="xMidYMid meet">
<metadata>
Created by potrace 1.11, written by Peter Selinger 2001-2013
</metadata>
<g transform="translate(0.000000,300.000000) scale(0.100000,-0.100000)"
fill="#000000" stroke="none">
<path d="M560 2860 l0 -140 -280 0 c-180 0 -280 -4 -280 -10 0 -6 100 -10 280
-10 l280 0 0 -140 0 -140 -280 0 c-180 0 -280 -4 -280 -10 0 -6 100 -10 280
-10 l280 0 0 -140 0 -140 -280 0 c-180 0 -280 -4 -280 -10 0 -6 100 -10 280
-10 l280 0 0 -140 0 -140 -280 0 c-180 0 -280 -4 -280 -10 0 -6 100 -10 280
-10 l280 0 0 -140 0 -140 -280 0 c-180 0 -280 -4 -280 -10 0 -6 100 -10 280
-10 l280 0 0 -140 0 -140 -280 0 c-180 0 -280 -4 -280 -10 0 -6 100 -10 280
-10 l280 0 0 -140 0 -140 -280 0 c-180 0 -280 -4 -280 -10 0 -6 100 -10 280
-10 l280 0 0 -140 0 -140 -280 0 c-180 0 -280 -4 -280 -10 0 -6 100 -10 280
-10 l280 0 0 -140 0 -140 -280 0 c-180 0 -280 -4 -280 -10 0 -6 100 -10 280
-10 l280 0 0 -140 0 -140 -282 -3 c-156 -1 394 -2 1222 -3 828 0 1470 2 1428
3 l-78 4 0 139 0 140 75 0 c43 0 75 4 75 10 0 6 -32 10 -75 10 l-75 0 0 140 0
140 75 0 c43 0 75 4 75 10 0 6 -32 10 -75 10 l-75 0 0 140 0 140 75 0 c43 0
75 4 75 10 0 6 -32 10 -75 10 l-75 0 0 140 0 140 75 0 c43 0 75 4 75 10 0 6
-32 10 -75 10 l-75 0 0 140 0 140 75 0 c43 0 75 4 75 10 0 6 -32 10 -75 10
l-75 0 0 140 0 140 75 0 c43 0 75 4 75 10 0 6 -32 10 -75 10 l-75 0 0 140 0
140 75 0 c43 0 75 4 75 10 0 6 -32 10 -75 10 l-75 0 0 140 0 140 75 0 c43 0
75 4 75 10 0 6 -32 10 -75 10 l-75 0 0 140 0 140 75 0 c43 0 75 4 75 10 0 6
-32 10 -75 10 l-75 0 0 140 c0 87 -4 140 -10 140 -6 0 -10 -53 -10 -140 l0
-140 -275 0 -275 0 0 140 c0 87 -4 140 -10 140 -6 0 -10 -53 -10 -140 l0 -140
-270 0 -270 0 0 140 c0 87 -4 140 -10 140 -6 0 -10 -53 -10 -140 l0 -140 -280
0 -280 0 0 140 c0 87 -4 140 -10 140 -6 0 -10 -53 -10 -140 l0 -140 -270 0
-270 0 0 140 c0 87 -4 140 -10 140 -6 0 -10 -53 -10 -140z m560 -300 l0 -140
-270 0 -270 0 0 140 0 140 270 0 270 0 0 -140z m580 0 l0 -140 -280 0 -280 0
0 140 0 140 280 0 280 0 0 -140z m560 0 l0 -140 -270 0 -270 0 0 140 0 140
270 0 270 0 0 -140z m570 0 l0 -140 -275 0 -275 0 0 140 0 140 275 0 275 0 0
-140z m-1710 -300 l0 -140 -270 0 -270 0 0 140 0 140 270 0 270 0 0 -140z
m580 0 l0 -140 -280 0 -280 0 0 140 0 140 280 0 280 0 0 -140z m560 0 l0 -140
-270 0 -270 0 0 140 0 140 270 0 270 0 0 -140z m570 0 l0 -140 -275 0 -275 0
0 140 0 140 275 0 275 0 0 -140z m-1710 -300 l0 -140 -270 0 -270 0 0 140 0
140 270 0 270 0 0 -140z m580 0 l0 -140 -280 0 -280 0 0 140 0 140 280 0 280
0 0 -140z m560 0 l0 -140 -270 0 -270 0 0 140 0 140 270 0 270 0 0 -140z m570
0 l0 -140 -275 0 -275 0 0 140 0 140 275 0 275 0 0 -140z m-1710 -300 l0 -140
-270 0 -270 0 0 140 0 140 270 0 270 0 0 -140z m580 0 l0 -140 -280 0 -280 0
0 140 0 140 280 0 280 0 0 -140z m560 0 l0 -140 -270 0 -270 0 0 140 0 140
270 0 270 0 0 -140z m570 0 l0 -140 -275 0 -275 0 0 140 0 140 275 0 275 0 0
-140z m-1710 -300 l0 -140 -270 0 -270 0 0 140 0 140 270 0 270 0 0 -140z
m580 0 l0 -140 -280 0 -280 0 0 140 0 140 280 0 280 0 0 -140z m560 0 l0 -140
-270 0 -270 0 0 140 0 140 270 0 270 0 0 -140z m570 0 l0 -140 -275 0 -275 0
0 140 0 140 275 0 275 0 0 -140z m-1710 -300 l0 -140 -270 0 -270 0 0 140 0
140 270 0 270 0 0 -140z m580 0 l0 -140 -280 0 -280 0 0 140 0 140 280 0 280
0 0 -140z m560 0 l0 -140 -270 0 -270 0 0 140 0 140 270 0 270 0 0 -140z m570
0 l0 -140 -275 0 -275 0 0 140 0 140 275 0 275 0 0 -140z m-1710 -300 l0 -140
-270 0 -270 0 0 140 0 140 270 0 270 0 0 -140z m580 0 l0 -140 -280 0 -280 0
0 140 0 140 280 0 280 0 0 -140z m560 0 l0 -140 -270 0 -270 0 0 140 0 140
270 0 270 0 0 -140z m570 0 l0 -140 -275 0 -275 0 0 140 0 140 275 0 275 0 0
-140z m-1710 -300 l0 -140 -270 0 -270 0 0 140 0 140 270 0 270 0 0 -140z
m580 0 l0 -140 -280 0 -280 0 0 140 0 140 280 0 280 0 0 -140z m560 0 l0 -140
-270 0 -270 0 0 140 0 140 270 0 270 0 0 -140z m570 0 l0 -140 -275 0 -275 0
0 140 0 140 275 0 275 0 0 -140z m-1710 -300 l0 -140 -270 0 -270 0 0 140 0
140 270 0 270 0 0 -140z m580 0 l0 -140 -280 0 -280 0 0 140 0 140 280 0 280
0 0 -140z m560 0 l0 -140 -270 0 -270 0 0 140 0 140 270 0 270 0 0 -140z m570
0 l0 -140 -275 0 -275 0 0 140 0 140 275 0 275 0 0 -140z"/>
</g>
</svg>
